<svg width="1600" height="900" viewBox="0 0 1600 900" fill="none" xmlns="http://www.w3.org/2000/svg">
  <defs>
    <linearGradient id="bg" x1="0" y1="0" x2="1600" y2="900" gradientUnits="userSpaceOnUse">
      <stop stop-color="#07132B" />
      <stop offset="0.52" stop-color="#081A3A" />
      <stop offset="1" stop-color="#050E22" />
    </linearGradient>
    <radialGradient id="aurora1" cx="0" cy="0" r="1" gradientUnits="userSpaceOnUse" gradientTransform="translate(1180 180) rotate(135) scale(980 620)">
      <stop stop-color="#A78BFA" stop-opacity="0.42" />
      <stop offset="0.55" stop-color="#60A5FA" stop-opacity="0.18" />
      <stop offset="1" stop-color="#22D3EE" stop-opacity="0" />
    </radialGradient>
    <radialGradient id="aurora2" cx="0" cy="0" r="1" gradientUnits="userSpaceOnUse" gradientTransform="translate(380 120) rotate(45) scale(920 640)">
      <stop stop-color="#22D3EE" stop-opacity="0.28" />
      <stop offset="0.6" stop-color="#3B82F6" stop-opacity="0.12" />
      <stop offset="1" stop-color="#A78BFA" stop-opacity="0" />
    </radialGradient>
    <linearGradient id="glass" x1="0" y1="0" x2="0" y2="1">
      <stop stop-color="#FFFFFF" stop-opacity="0.12" />
      <stop offset="1" stop-color="#FFFFFF" stop-opacity="0.04" />
    </linearGradient>
    <linearGradient id="panel" x1="0" y1="0" x2="1" y2="1">
      <stop stop-color="#0B1A3A" stop-opacity="0.92" />
      <stop offset="1" stop-color="#08142D" stop-opacity="0.88" />
    </linearGradient>
    <filter id="softShadow" x="-40" y="-40" width="1680" height="980" filterUnits="userSpaceOnUse" color-interpolation-filters="sRGB">
      <feGaussianBlur stdDeviation="22" result="blur" />
      <feColorMatrix in="blur" type="matrix" values="0 0 0 0 0.02  0 0 0 0 0.06  0 0 0 0 0.16  0 0 0 0.70 0" />
      <feBlend in="SourceGraphic" mode="normal" />
    </filter>
    <pattern id="dots" x="0" y="0" width="48" height="48" patternUnits="userSpaceOnUse">
      <circle cx="2" cy="2" r="1.2" fill="#C7D2FE" opacity="0.20" />
    </pattern>
  </defs>

  <rect width="1600" height="900" fill="url(#bg)" />
  <rect width="1600" height="900" fill="url(#aurora1)" />
  <rect width="1600" height="900" fill="url(#aurora2)" />
  <rect width="1600" height="900" fill="url(#dots)" opacity="0.85" />

  <!-- subtle circuit lines -->
  <g opacity="0.55" stroke="#93C5FD" stroke-opacity="0.32" stroke-width="2" stroke-linecap="round">
    <path d="M160 260H420C460 260 470 240 510 240H720" />
    <path d="M220 420H460C500 420 520 452 560 452H780" />
    <path d="M120 560H380C440 560 460 520 520 520H700" />
    <path d="M930 240H1110C1160 240 1180 278 1230 278H1440" />
    <path d="M980 420H1140C1186 420 1208 392 1254 392H1460" />
    <path d="M900 590H1090C1146 590 1160 632 1216 632H1480" />
  </g>
  <g opacity="0.75" fill="#22D3EE">
    <circle cx="160" cy="260" r="4" opacity="0.7" />
    <circle cx="420" cy="260" r="4" opacity="0.55" />
    <circle cx="510" cy="240" r="4" opacity="0.7" />
    <circle cx="720" cy="240" r="4" opacity="0.55" />

    <circle cx="220" cy="420" r="4" opacity="0.65" />
    <circle cx="460" cy="420" r="4" opacity="0.55" />
    <circle cx="560" cy="452" r="4" opacity="0.7" />
    <circle cx="780" cy="452" r="4" opacity="0.55" />

    <circle cx="120" cy="560" r="4" opacity="0.65" />
    <circle cx="380" cy="560" r="4" opacity="0.55" />
    <circle cx="520" cy="520" r="4" opacity="0.7" />
    <circle cx="700" cy="520" r="4" opacity="0.55" />

    <circle cx="930" cy="240" r="4" opacity="0.65" />
    <circle cx="1110" cy="240" r="4" opacity="0.55" />
    <circle cx="1230" cy="278" r="4" opacity="0.7" />
    <circle cx="1440" cy="278" r="4" opacity="0.55" />
  </g>

  <!-- smart management dashboard -->
  <g filter="url(#softShadow)">
    <rect x="250" y="250" width="1100" height="520" rx="26" fill="url(#glass)" stroke="#93C5FD" stroke-opacity="0.24" />
    <rect x="272" y="272" width="1056" height="476" rx="22" fill="url(#panel)" stroke="#60A5FA" stroke-opacity="0.22" />

    <!-- sidebar -->
    <rect x="300" y="305" width="210" height="410" rx="18" fill="#0B1733" stroke="#93C5FD" stroke-opacity="0.16" />
    <g opacity="0.85" fill="#93C5FD" fill-opacity="0.16">
      <rect x="320" y="330" width="170" height="38" rx="12" />
      <rect x="320" y="380" width="170" height="30" rx="12" opacity="0.9" />
      <rect x="320" y="420" width="170" height="30" rx="12" opacity="0.85" />
      <rect x="320" y="460" width="170" height="30" rx="12" opacity="0.8" />
      <rect x="320" y="500" width="170" height="30" rx="12" opacity="0.75" />
      <rect x="320" y="540" width="170" height="30" rx="12" opacity="0.7" />
    </g>

    <!-- top bar -->
    <rect x="532" y="305" width="776" height="64" rx="18" fill="#0B1733" stroke="#93C5FD" stroke-opacity="0.16" />
    <rect x="560" y="327" width="240" height="20" rx="10" fill="#93C5FD" fill-opacity="0.14" />
    <rect x="1112" y="324" width="168" height="28" rx="14" fill="#1F64FF" fill-opacity="0.22" stroke="#60A5FA" stroke-opacity="0.22" />

    <!-- KPI cards -->
    <g>
      <rect x="532" y="390" width="250" height="128" rx="18" fill="url(#glass)" stroke="#93C5FD" stroke-opacity="0.18" />
      <rect x="802" y="390" width="250" height="128" rx="18" fill="url(#glass)" stroke="#93C5FD" stroke-opacity="0.18" />
      <rect x="1072" y="390" width="236" height="128" rx="18" fill="url(#glass)" stroke="#93C5FD" stroke-opacity="0.18" />

      <rect x="560" y="416" width="120" height="16" rx="8" fill="#93C5FD" fill-opacity="0.22" />
      <rect x="560" y="444" width="180" height="26" rx="13" fill="#22D3EE" fill-opacity="0.18" />

      <rect x="830" y="416" width="120" height="16" rx="8" fill="#93C5FD" fill-opacity="0.22" />
      <rect x="830" y="444" width="180" height="26" rx="13" fill="#A78BFA" fill-opacity="0.16" />

      <rect x="1098" y="416" width="120" height="16" rx="8" fill="#93C5FD" fill-opacity="0.22" />
      <rect x="1098" y="444" width="180" height="26" rx="13" fill="#60A5FA" fill-opacity="0.18" />
    </g>

    <!-- analytics panel -->
    <rect x="532" y="534" width="516" height="214" rx="18" fill="url(#glass)" stroke="#93C5FD" stroke-opacity="0.18" />
    <rect x="1064" y="534" width="244" height="214" rx="18" fill="url(#glass)" stroke="#93C5FD" stroke-opacity="0.18" />

    <!-- chart lines -->
    <g opacity="0.85">
      <path d="M560 710H1018" stroke="#93C5FD" stroke-opacity="0.18" stroke-width="2" />
      <path d="M560 680H1018" stroke="#93C5FD" stroke-opacity="0.14" stroke-width="2" />
      <path d="M560 650H1018" stroke="#93C5FD" stroke-opacity="0.10" stroke-width="2" />
      <path d="M560 622H1018" stroke="#93C5FD" stroke-opacity="0.08" stroke-width="2" />
      <path d="M575 702C632 664 688 670 740 640C792 610 844 634 900 606C956 578 988 582 1006 560" stroke="#22D3EE" stroke-opacity="0.55" stroke-width="4" stroke-linecap="round" />
      <path d="M575 706C635 690 704 698 754 674C804 650 840 662 892 638C944 614 980 610 1006 594" stroke="#A78BFA" stroke-opacity="0.32" stroke-width="3" stroke-linecap="round" />
      <circle cx="740" cy="640" r="5" fill="#22D3EE" fill-opacity="0.7" />
      <circle cx="900" cy="606" r="5" fill="#22D3EE" fill-opacity="0.7" />
      <circle cx="1006" cy="560" r="5" fill="#22D3EE" fill-opacity="0.7" />
    </g>

    <!-- smart icon cluster (AI + calendar + store) -->
    <g transform="translate(1084 556)" opacity="0.9">
      <rect x="0" y="0" width="204" height="74" rx="18" fill="#0B1733" stroke="#93C5FD" stroke-opacity="0.18" />
      <circle cx="34" cy="37" r="18" fill="#1F64FF" fill-opacity="0.20" stroke="#60A5FA" stroke-opacity="0.22" />
      <path d="M34 26v22M23 37h22" stroke="#93C5FD" stroke-opacity="0.55" stroke-width="2" stroke-linecap="round" />
      <rect x="66" y="26" width="116" height="10" rx="5" fill="#93C5FD" fill-opacity="0.18" />
      <rect x="66" y="44" width="84" height="10" rx="5" fill="#93C5FD" fill-opacity="0.12" />

      <rect x="0" y="90" width="204" height="74" rx="18" fill="#0B1733" stroke="#93C5FD" stroke-opacity="0.18" />
      <rect x="18" y="108" width="34" height="34" rx="10" fill="#22D3EE" fill-opacity="0.16" stroke="#22D3EE" stroke-opacity="0.22" />
      <path d="M26 124h18M26 132h12" stroke="#93C5FD" stroke-opacity="0.55" stroke-width="2" stroke-linecap="round" />
      <rect x="66" y="116" width="116" height="10" rx="5" fill="#93C5FD" fill-opacity="0.18" />
      <rect x="66" y="134" width="96" height="10" rx="5" fill="#93C5FD" fill-opacity="0.12" />

      <rect x="0" y="180" width="204" height="74" rx="18" fill="#0B1733" stroke="#93C5FD" stroke-opacity="0.18" />
      <rect x="18" y="198" width="34" height="34" rx="10" fill="#A78BFA" fill-opacity="0.14" stroke="#A78BFA" stroke-opacity="0.22" />
      <path d="M26 223v-14c0-3 2-5 5-5h8c3 0 5 2 5 5v14" stroke="#93C5FD" stroke-opacity="0.55" stroke-width="2" stroke-linecap="round" />
      <path d="M28 214h14" stroke="#93C5FD" stroke-opacity="0.55" stroke-width="2" stroke-linecap="round" />
      <rect x="66" y="206" width="116" height="10" rx="5" fill="#93C5FD" fill-opacity="0.18" />
      <rect x="66" y="224" width="88" height="10" rx="5" fill="#93C5FD" fill-opacity="0.12" />
    </g>
  </g>

  <!-- bottom foreground -->
  <path d="M0 760C220 720 420 736 620 756C880 782 1140 792 1600 748V900H0V760Z" fill="#040A18" opacity="0.76" />
  <path d="M0 770C260 740 470 754 650 772C900 796 1160 806 1600 764" stroke="#93C5FD" stroke-opacity="0.16" stroke-width="2" />
</svg>
